<?xml version="1.0" standalone="no"?><!DOCTYPE svg PUBLIC "-//W3C//DTD SVG 1.1//EN" "http://www.w3.org/Graphics/SVG/1.1/DTD/svg11.dtd"><svg t="1657199521636" class="icon" viewBox="0 0 1024 1024" version="1.1" xmlns="http://www.w3.org/2000/svg" p-id="2397" xmlns:xlink="http://www.w3.org/1999/xlink" width="200" height="200"><defs><style type="text/css"></style></defs><path d="M1008 511.062c0.506 273.28-222.36 496.744-495.64 496.936-118.03 0.084-226.446-41.06-311.644-109.822-22.154-17.88-23.81-51.082-3.678-71.214l22.534-22.534c17.218-17.218 44.706-19.102 63.782-3.968C346.124 850.27 425.562 880 512 880c203.41 0 368-164.622 368-368 0-203.41-164.622-368-368-368-97.628 0-186.298 37.938-252.136 99.864l101.508 101.508c20.16 20.16 5.882 54.628-22.626 54.628H48c-17.674 0-32-14.326-32-32V77.254c0-28.508 34.468-42.786 54.628-22.628l98.744 98.744C258.418 68.272 379.104 16 512 16c273.62 0 495.494 221.56 496 495.062z m-361.824 157.568l19.646-25.26c16.276-20.926 12.506-51.084-8.42-67.358L576 512.698V304c0-26.51-21.49-48-48-48h-32c-26.51 0-48 21.49-48 48v271.302l130.818 101.748c20.926 16.274 51.082 12.506 67.358-8.42z" p-id="2398"></path></svg>