<?xml version="1.0" standalone="no"?><!DOCTYPE svg PUBLIC "-//W3C//DTD SVG 1.1//EN" "http://www.w3.org/Graphics/SVG/1.1/DTD/svg11.dtd"><svg t="1654956616125" class="icon" viewBox="0 0 1228 1024" version="1.1" xmlns="http://www.w3.org/2000/svg" p-id="25966" xmlns:xlink="http://www.w3.org/1999/xlink" width="239.84375" height="200"><defs><style type="text/css"></style></defs><path d="M371.968 993.2288a23.04 23.04 0 0 1-23.6032 22.3744H23.6544A23.04 23.04 0 0 1 0 993.2288V315.3408C0 303.0528 10.5984 293.0176 23.552 293.0176h324.7616a23.04 23.04 0 0 1 23.6032 22.3232v677.888z" fill="#774444" p-id="25967"></path><path d="M348.3648 292.9664H23.552a22.9888 22.9888 0 0 0-23.552 22.4256v677.7856c0 12.4416 10.496 22.4256 23.552 22.4256h324.7616a22.9888 22.9888 0 0 0 23.552-22.4256V315.392a22.9888 22.9888 0 0 0-23.552-22.3744" fill="#2885E3" p-id="25968"></path><path d="M859.904 1014.9888h324.7616a22.9888 22.9888 0 0 0 23.552-22.4256V314.7776a22.9888 22.9888 0 0 0-23.552-22.4256H859.904a22.9888 22.9888 0 0 0-23.552 22.4256v677.7856c0 12.3904 10.496 22.4256 23.552 22.4256" fill="#7FBDFD" p-id="25969"></path><path d="M767.5904 18.432H606.5152v528.7936h88.832v86.8864H606.5152v56.9344h88.832v86.9376H606.5152v237.6192h161.024a23.04 23.04 0 0 0 22.9376-23.1424V41.472c0-12.8-10.2912-23.04-22.8864-23.04" fill="#7FBDFD" p-id="25970"></path><path d="M513.6896 18.432h-72.192a23.04 23.04 0 0 0-23.04 23.04v950.9888c0 12.8 10.3936 23.0912 23.04 23.0912h165.0688v-237.5168H513.6896v-87.04h92.8768v-56.832H513.6896v-86.9376h92.8768V18.432H513.6896z" fill="#2885E3" p-id="25971"></path></svg>